<?xml version="1.0" standalone="no"?><!DOCTYPE svg PUBLIC "-//W3C//DTD SVG 1.1//EN" "http://www.w3.org/Graphics/SVG/1.1/DTD/svg11.dtd"><svg t="1745309772176" class="icon" viewBox="0 0 1024 1024" version="1.1" xmlns="http://www.w3.org/2000/svg" p-id="7151" xmlns:xlink="http://www.w3.org/1999/xlink" width="200" height="200"><path d="M469.344 469.344V298.688c0-25.6 17.056-42.656 42.656-42.656s42.656 21.344 42.656 42.656v170.656h170.656c25.6 0 42.656 17.056 42.656 42.656s-21.344 42.656-42.656 42.656h-170.656v170.656c0 25.6-17.056 42.656-42.656 42.656s-42.656-21.344-42.656-42.656v-170.656H298.688c-25.6 0-42.656-17.056-42.656-42.656s21.344-42.656 42.656-42.656h170.656zM947.2 780.8c-12.8 21.344-38.4 25.6-59.744 12.8s-25.6-38.4-12.8-59.744 25.6-42.656 34.144-68.256c21.344-51.2 29.856-102.4 29.856-157.856 0-234.656-192-426.656-426.656-426.656S85.344 277.344 85.344 512.032s192 426.656 426.656 426.656c76.8 0 153.6-21.344 217.6-59.744 4.256 0 4.256-4.256 8.544-4.256 21.344-12.8 46.944-4.256 59.744 12.8 12.8 21.344 4.256 46.944-12.8 59.744-4.256 0-4.256 4.256-8.544 4.256-81.056 46.944-170.656 72.544-264.544 72.544-281.6 0-512-230.4-512-512s230.4-512 512-512 512 230.4 512 512c0 64-12.8 128-34.144 187.744-12.8 29.856-25.6 55.456-42.656 81.056z" p-id="7152" fill="#d4237a"></path></svg>