<?xml version="1.0" standalone="no"?><!DOCTYPE svg PUBLIC "-//W3C//DTD SVG 1.1//EN" "http://www.w3.org/Graphics/SVG/1.1/DTD/svg11.dtd"><svg t="1751193341658" class="icon" viewBox="0 0 1024 1024" version="1.1" xmlns="http://www.w3.org/2000/svg" p-id="3370" width="32" height="32" data-spm-anchor-id="a313x.search_index.0.i5.8c3b3a81ppgE2M" xmlns:xlink="http://www.w3.org/1999/xlink"><path d="M800.036571 306.322286l0.073143 576h-0.146285l-575.926858-0.073143V306.322286h575.926858zM347.428571 141.750857h329.142858v82.285714h-329.142858V141.677714z m576 82.285714h-164.571428V114.249143c0-26.477714-21.577143-54.857143-82.066286-54.857143H347.209143c-60.489143 0-82.066286 28.379429-82.066286 54.857143v109.714286h-164.571428a41.179429 41.179429 0 0 0 0 82.358857h41.179428v575.926857c0 45.348571 36.864 82.358857 82.285714 82.358857h575.926858c45.421714 0 82.285714-36.937143 82.358857-82.358857V306.322286h41.106285a41.106286 41.106286 0 1 0 0-82.285715z m-288.036571 517.558858c22.747429 0 41.179429-18.432 41.179429-41.179429V429.714286a41.106286 41.106286 0 1 0-82.285715 0v270.701714c0 22.674286 18.432 41.179429 41.179429 41.179429m-246.930286 0c22.747429 0 41.179429-18.432 41.179429-41.179429V429.714286a41.179429 41.179429 0 0 0-82.285715 0v270.701714c0 22.674286 18.432 41.179429 41.179429 41.179429" fill="#d81e06" p-id="3371" data-spm-anchor-id="a313x.search_index.0.i4.8c3b3a81ppgE2M" class="selected"></path></svg>