<?xml version="1.0" standalone="no"?><!DOCTYPE svg PUBLIC "-//W3C//DTD SVG 1.1//EN" "http://www.w3.org/Graphics/SVG/1.1/DTD/svg11.dtd"><svg t="1745132908168" class="icon" viewBox="0 0 1024 1024" version="1.1" xmlns="http://www.w3.org/2000/svg" p-id="5254" xmlns:xlink="http://www.w3.org/1999/xlink" width="200" height="200"><path d="M912 535.466667h-64a5.333333 5.333333 0 0 0-5.333333 5.333333v11.893333a5.333333 5.333333 0 0 1-5.333334 5.333334h-95.36a5.013333 5.013333 0 0 1-3.413333-1.28A275.413333 275.413333 0 0 0 688 522.666667a5.333333 5.333333 0 0 1-2.826667-4.64V432a5.333333 5.333333 0 0 1 5.333334-5.333333h62.773333a5.333333 5.333333 0 0 0 5.333333-5.333334V357.333333a5.333333 5.333333 0 0 0-5.333333-5.333333H554.666667a5.333333 5.333333 0 0 1-5.333334-5.333333V186.666667a5.333333 5.333333 0 0 1 5.333334-5.333334h101.333333a5.333333 5.333333 0 0 0 5.333333-5.333333V112a5.333333 5.333333 0 0 0-5.333333-5.333333H368a5.333333 5.333333 0 0 0-5.333333 5.333333v64a5.333333 5.333333 0 0 0 5.333333 5.333333h101.333333a5.333333 5.333333 0 0 1 5.333334 5.333334v160a5.333333 5.333333 0 0 1-5.333334 5.333333H270.56a5.333333 5.333333 0 0 0-5.333333 5.333333v64a5.333333 5.333333 0 0 0 5.333333 5.333334H333.333333a5.333333 5.333333 0 0 1 5.333334 5.333333v85.866667a5.333333 5.333333 0 0 1-2.666667 4.8 275.413333 275.413333 0 0 0-50.4 34.346666 5.013333 5.013333 0 0 1-3.413333 1.28H186.666667a5.333333 5.333333 0 0 1-5.333334-5.333333v-12.16a5.333333 5.333333 0 0 0-5.333333-5.333333H112a5.333333 5.333333 0 0 0-5.333333 5.333333v288a5.333333 5.333333 0 0 0 5.333333 5.333333h64a5.333333 5.333333 0 0 0 5.333333-5.333333v-11.733333a5.333333 5.333333 0 0 1 5.333334-5.333334h94.24a5.333333 5.333333 0 0 1 3.413333 1.333334 273.28 273.28 0 0 0 51.68 35.253333 5.333333 5.333333 0 0 1 2.826667 4.64V912a5.333333 5.333333 0 0 0 5.333333 5.333333h336a5.333333 5.333333 0 0 0 5.333333-5.333333v-58.986667a5.333333 5.333333 0 0 1 2.826667-4.693333 273.28 273.28 0 0 0 51.52-35.306667 5.333333 5.333333 0 0 1 3.413333-1.333333H837.333333a5.333333 5.333333 0 0 1 5.333334 5.333333v11.84a5.333333 5.333333 0 0 0 5.333333 5.333334h64a5.333333 5.333333 0 0 0 5.333333-5.333334v-288a5.333333 5.333333 0 0 0-5.333333-5.386666z m-74.666667 201.706666h-122.666666a5.333333 5.333333 0 0 0-3.52 1.386667l-19.733334 17.6a201.066667 201.066667 0 0 1-40.533333 27.573333l-37.333333 19.413334a5.333333 5.333333 0 0 0-2.88 4.746666V837.333333a5.333333 5.333333 0 0 1-5.333334 5.333334h-186.666666a5.333333 5.333333 0 0 1-5.333334-5.333334v-29.6a5.333333 5.333333 0 0 0-2.88-4.746666l-37.333333-19.413334a201.066667 201.066667 0 0 1-40.533333-27.573333l-19.733334-17.6a5.333333 5.333333 0 0 0-3.52-1.386667H186.666667a5.333333 5.333333 0 0 1-5.333334-5.333333v-93.76a5.333333 5.333333 0 0 1 5.333334-5.333333h123.52a5.333333 5.333333 0 0 0 3.52-1.333334l19.626666-17.28a197.6 197.6 0 0 1 39.786667-26.666666l37.333333-19.466667a5.333333 5.333333 0 0 0 2.88-4.693333V432a5.333333 5.333333 0 0 1 5.333334-5.333333h186.666666a5.333333 5.333333 0 0 1 5.333334 5.333333v131.146667a5.333333 5.333333 0 0 0 2.88 4.693333l37.333333 19.466667a197.6 197.6 0 0 1 39.786667 26.666666l19.626666 17.28a5.333333 5.333333 0 0 0 3.52 1.333334H837.333333a5.333333 5.333333 0 0 1 5.333334 5.333333v93.92a5.333333 5.333333 0 0 1-5.333334 5.333333z" p-id="5255"></path></svg>