<svg xmlns="http://www.w3.org/2000/svg" xmlns:xlink="http://www.w3.org/1999/xlink" width="32" height="31.999969482421875" viewBox="0 0 32 31.999969482421875" fill="none">
<g  clip-path="url(#clip-path-2_3)">
<path     fill="#FFFFFF"  d="M0 32L32 32L32 0L0 0L0 32Z">
</path>
<rect  transform="matrix(-0.48481008410453796, -0.8746205568313599, -0.8746205568313599, 0.48481008410453796, 32.97705078125, 29.999969482421875)" x="0" y="0" width="32.69972816193127" height="3.000055814263573" rx="1.5000279071317866"    fill="url(#linear_fill_2_13_0)" >
</rect>
<rect  x="-0.5" y="29.999969482421875" width="32.69972816193127" height="3.000055814263573" transform="rotate(-61.00000035748605 -0.5 29.999969482421875)" rx="1.5000279071317866"    fill="url(#linear_fill_2_11_0)" >
</rect>
<rect  x="-0.5" y="-0.000030517578125" width="3" height="6" rx="1.5"    fill="#BC64A4" >
</rect>
<rect  x="29.5" y="15.999969482421875" width="3" height="16" rx="1.5"    fill="#00BAAD" >
</rect>
<rect  x="-0.5" y="15.999969482421875" width="3" height="16" rx="1.5"    fill="#00BAAD" >
</rect>
<rect  x="14.5" y="-0.000030517578125" width="3" height="32" rx="1.5"    fill="url(#linear_fill_2_9_0)" >
</rect>
<rect  x="-0.5" y="-0.000030517578125" width="33" height="3" rx="1.5"    fill="#BC64A4" >
</rect>
<rect  x="-0.5" y="28.999969482421875" width="33" height="3" rx="1.5"    fill="#00BAAD" >
</rect>
<rect  x="29.5" y="-0.000030517578125" width="3" height="6" rx="1.5"    fill="#BC64A4" >
</rect>
</g>
<defs>
<clipPath id="clip-path-2_3">
<path d="M0 32L32 32L32 0L0 0L0 32Z" fill="white"/>
</clipPath>
<linearGradient id="linear_fill_2_13_0" x1="0" y1="1.5000279071317866" x2="32.69972816193127" y2="1.5000279071317866" gradientUnits="userSpaceOnUse">
<stop offset="0" stop-color="#F09199" stop-opacity="0.2" />
<stop offset="0.5163" stop-color="#F09098"  />
<stop offset="1" stop-color="#F09199" stop-opacity="0.2" />
</linearGradient>
<linearGradient id="linear_fill_2_11_0" x1="-0.5" y1="31.499997389553663" x2="32.19972816193127" y2="31.499997389553663" gradientUnits="userSpaceOnUse">
<stop offset="0" stop-color="#F09199" stop-opacity="0.2" />
<stop offset="0.5163" stop-color="#F09098"  />
<stop offset="1" stop-color="#F09199" stop-opacity="0.2" />
</linearGradient>
<linearGradient id="linear_fill_2_9_0" x1="16" y1="-0.000030517578125" x2="16" y2="31.999969482421875" gradientUnits="userSpaceOnUse">
<stop offset="0.1" stop-color="#BC64A4"  />
<stop offset="0.9167" stop-color="#00BAAD"  />
</linearGradient>
</defs>
</svg>
